<mxfile host="app.diagrams.net" modified="2023-09-25T14:25:06.161Z" agent="Mozilla/5.0 (Windows NT 10.0; Win64; x64) AppleWebKit/537.36 (KHTML, like Gecko) Chrome/117.0.0.0 Safari/537.36 Edg/117.0.2045.36" version="21.8.2" etag="lmn6Xk_EWk-7eCG8hV_d" type="github">
  <diagram name="Page-1" id="HZ8IKZ5VjJhT-iAgVZ1Y">
    <mxGraphModel>
      <root>
        <mxCell id="0" />
        <mxCell id="1" parent="0" />
      </root>
    </mxGraphModel>
  </diagram>
</mxfile>
